<mxfile host="app.diagrams.net" modified="2021-02-19T13:00:17.143Z" agent="5.0 (Windows NT 10.0; Win64; x64) AppleWebKit/537.36 (KHTML, like Gecko) Chrome/88.0.4324.104 Safari/537.36" etag="v1rx-32Tgi3TKla_V1yh" version="14.4.2" type="github" pages="3">
  <diagram name="Page-1" id="dd472eb7-4b8b-5cd9-a60b-b15522922e76">
    <mxGraphModel dx="1662" dy="762" grid="1" gridSize="10" guides="1" tooltips="1" connect="1" arrows="1" fold="1" page="1" pageScale="1" pageWidth="1100" pageHeight="850" background="#ffffff" math="0" shadow="0">
      <root>
        <mxCell id="0" />
        <mxCell id="1" parent="0" />
        <mxCell id="374e34682ed331ee-1" value="&lt;font face=&quot;Lucida Console&quot;&gt;Azure DevOps &lt;br&gt;Services&lt;/font&gt;" style="ellipse;whiteSpace=wrap;html=1;rounded=0;shadow=0;dashed=0;comic=0;fontFamily=Verdana;fontSize=22;fontColor=#0069D1;fillColor=#f5f5f5;strokeColor=#666666;" parent="1" vertex="1">
          <mxGeometry x="330" y="180" width="390" height="330" as="geometry" />
        </mxCell>
        <mxCell id="45236fa5f4b8e91a-1" value="&lt;h3 class=&quot;text-heading4 color-devops-boards&quot; style=&quot;box-sizing: inherit ; font-size: 18px ; line-height: 1.3 ; margin: 10px 0px 9px ; position: relative ; color: rgb(46 , 46 , 51) ; font-family: &amp;#34;segoe ui&amp;#34; , &amp;#34;segoeui&amp;#34; , &amp;#34;segoe wp&amp;#34; , &amp;#34;tahoma&amp;#34; , &amp;#34;arial&amp;#34; , sans-serif ; text-align: left ; background-color: rgb(255 , 255 , 255)&quot;&gt;&lt;img src=&quot;https://azurecomcdn.azureedge.net/cvt-28fac33c1d67fb825ed6b66100842257baab9f93a0abb1b6025bb0f171ea348b/images/shared/services/devops/boards-icon-80.png&quot;&gt;&lt;br&gt;&lt;/h3&gt;" style="ellipse;whiteSpace=wrap;html=1;rounded=0;shadow=0;dashed=0;comic=0;fontFamily=Verdana;fontSize=22;fontColor=#0069D1;fillColor=#f5f5f5;strokeColor=#666666;gradientColor=#ffffff;" parent="1" vertex="1">
          <mxGeometry x="430" y="70" width="140" height="140" as="geometry" />
        </mxCell>
        <mxCell id="45236fa5f4b8e91a-2" value="&lt;img src=&quot;https://azurecomcdn.azureedge.net/cvt-28fac33c1d67fb825ed6b66100842257baab9f93a0abb1b6025bb0f171ea348b/images/shared/services/devops/test-plans-icon-80.png&quot;&gt;" style="ellipse;whiteSpace=wrap;html=1;rounded=0;shadow=0;dashed=0;comic=0;fontFamily=Verdana;fontSize=22;fontColor=#0069D1;fillColor=#f5f5f5;strokeColor=#666666;" parent="1" vertex="1">
          <mxGeometry x="310" y="400" width="150" height="150" as="geometry" />
        </mxCell>
        <mxCell id="45236fa5f4b8e91a-3" value="&lt;img src=&quot;https://azurecomcdn.azureedge.net/cvt-28fac33c1d67fb825ed6b66100842257baab9f93a0abb1b6025bb0f171ea348b/images/shared/services/devops/pipelines-icon-80.png&quot;&gt;" style="ellipse;whiteSpace=wrap;html=1;rounded=0;shadow=0;dashed=0;comic=0;fontFamily=Verdana;fontSize=22;fontColor=#0069D1;fillColor=#f5f5f5;strokeColor=#666666;" parent="1" vertex="1">
          <mxGeometry x="670" y="330" width="150" height="140" as="geometry" />
        </mxCell>
        <mxCell id="45236fa5f4b8e91a-6" value="&lt;img src=&quot;https://azurecomcdn.azureedge.net/cvt-28fac33c1d67fb825ed6b66100842257baab9f93a0abb1b6025bb0f171ea348b/images/shared/services/devops/repos-icon-80.png&quot;&gt;" style="ellipse;whiteSpace=wrap;html=1;rounded=0;shadow=0;dashed=0;comic=0;fontFamily=Verdana;fontSize=22;fontColor=#0069D1;fillColor=#f5f5f5;strokeColor=#666666;" parent="1" vertex="1">
          <mxGeometry x="640" y="130" width="150" height="140" as="geometry" />
        </mxCell>
        <mxCell id="45236fa5f4b8e91a-7" value="&lt;img src=&quot;https://azurecomcdn.azureedge.net/cvt-28fac33c1d67fb825ed6b66100842257baab9f93a0abb1b6025bb0f171ea348b/images/shared/services/devops/artifacts-icon-72.png&quot;&gt;" style="ellipse;whiteSpace=wrap;html=1;rounded=0;shadow=0;dashed=0;comic=0;fontFamily=Verdana;fontSize=22;fontColor=#0069D1;fillColor=#f5f5f5;strokeColor=#666666;" parent="1" vertex="1">
          <mxGeometry x="550" y="470" width="140" height="130" as="geometry" />
        </mxCell>
        <mxCell id="45236fa5f4b8e91a-8" value="" style="ellipse;whiteSpace=wrap;html=1;rounded=0;shadow=0;dashed=0;comic=0;fontFamily=Verdana;fontSize=22;fontColor=#0069D1;fillColor=#f5f5f5;strokeColor=#666666;" parent="1" vertex="1">
          <mxGeometry x="267" y="190" width="150" height="140" as="geometry" />
        </mxCell>
        <mxCell id="8hstgDDjFndxdjPl-Gpj-9" value="" style="shape=image;html=1;verticalAlign=top;verticalLabelPosition=bottom;labelBackgroundColor=#ffffff;imageAspect=0;aspect=fixed;image=https://cdn3.iconfinder.com/data/icons/energy-and-power-glyph-24-px/24/Extension_cable_extension_cord_extension_lead_power_extension_power_supply-128.png" parent="1" vertex="1">
          <mxGeometry x="290" y="200" width="104" height="104" as="geometry" />
        </mxCell>
      </root>
    </mxGraphModel>
  </diagram>
  <diagram id="NxMbQd6Mesx1DQLlhpeM" name="Page-2">
    <mxGraphModel dx="1662" dy="762" grid="1" gridSize="10" guides="1" tooltips="1" connect="1" arrows="1" fold="1" page="1" pageScale="1" pageWidth="827" pageHeight="1169" math="0" shadow="0">
      <root>
        <mxCell id="2KaES_GRqSIqltBoU0bU-0" />
        <mxCell id="2KaES_GRqSIqltBoU0bU-1" parent="2KaES_GRqSIqltBoU0bU-0" />
        <mxCell id="2KaES_GRqSIqltBoU0bU-2" value="&lt;font style=&quot;background-color: rgb(51 , 51 , 51) ; font-size: 34px&quot; color=&quot;#ffffff&quot;&gt;Start&lt;/font&gt;" style="rounded=1;whiteSpace=wrap;html=1;strokeWidth=2;fillWeight=4;hachureGap=8;hachureAngle=45;sketch=1;strokeColor=#333333;fillColor=#009900;" parent="2KaES_GRqSIqltBoU0bU-1" vertex="1">
          <mxGeometry x="334" y="50" width="206" height="60" as="geometry" />
        </mxCell>
        <mxCell id="2KaES_GRqSIqltBoU0bU-3" value="&lt;font style=&quot;background-color: rgb(51 , 51 , 51) ; font-size: 34px&quot; color=&quot;#ffffff&quot;&gt;Write Code&lt;/font&gt;" style="rounded=1;whiteSpace=wrap;html=1;strokeWidth=2;fillWeight=4;hachureGap=8;hachureAngle=45;sketch=1;strokeColor=#333333;fillColor=#009900;" parent="2KaES_GRqSIqltBoU0bU-1" vertex="1">
          <mxGeometry x="331" y="150" width="209" height="60" as="geometry" />
        </mxCell>
        <mxCell id="2KaES_GRqSIqltBoU0bU-4" value="&lt;font color=&quot;#ffffff&quot;&gt;&lt;span style=&quot;font-size: 34px ; background-color: rgb(51 , 51 , 51)&quot;&gt;Run Code&lt;/span&gt;&lt;/font&gt;" style="rounded=1;whiteSpace=wrap;html=1;strokeWidth=2;fillWeight=4;hachureGap=8;hachureAngle=45;sketch=1;strokeColor=#333333;fillColor=#009900;" parent="2KaES_GRqSIqltBoU0bU-1" vertex="1">
          <mxGeometry x="331" y="250" width="209" height="60" as="geometry" />
        </mxCell>
        <mxCell id="2KaES_GRqSIqltBoU0bU-5" value="&lt;font style=&quot;background-color: rgb(51 , 51 , 51) ; font-size: 34px&quot; color=&quot;#ffffff&quot;&gt;Check Output&lt;/font&gt;" style="rounded=1;whiteSpace=wrap;html=1;strokeWidth=2;fillWeight=4;hachureGap=8;hachureAngle=45;sketch=1;strokeColor=#333333;fillColor=#009900;" parent="2KaES_GRqSIqltBoU0bU-1" vertex="1">
          <mxGeometry x="331" y="360" width="219" height="60" as="geometry" />
        </mxCell>
        <mxCell id="2KaES_GRqSIqltBoU0bU-11" value="" style="shape=flexArrow;endArrow=classic;html=1;fillColor=#009900;" parent="2KaES_GRqSIqltBoU0bU-1" edge="1">
          <mxGeometry width="50" height="50" relative="1" as="geometry">
            <mxPoint x="435" y="110" as="sourcePoint" />
            <mxPoint x="435" y="160" as="targetPoint" />
          </mxGeometry>
        </mxCell>
        <mxCell id="2KaES_GRqSIqltBoU0bU-12" value="" style="shape=flexArrow;endArrow=classic;html=1;fillColor=#009900;" parent="2KaES_GRqSIqltBoU0bU-1" edge="1">
          <mxGeometry width="50" height="50" relative="1" as="geometry">
            <mxPoint x="435" y="210" as="sourcePoint" />
            <mxPoint x="435" y="260" as="targetPoint" />
          </mxGeometry>
        </mxCell>
        <mxCell id="2KaES_GRqSIqltBoU0bU-13" value="" style="shape=flexArrow;endArrow=classic;html=1;fillColor=#009900;" parent="2KaES_GRqSIqltBoU0bU-1" edge="1">
          <mxGeometry width="50" height="50" relative="1" as="geometry">
            <mxPoint x="436.5" y="310" as="sourcePoint" />
            <mxPoint x="436.5" y="360" as="targetPoint" />
          </mxGeometry>
        </mxCell>
        <mxCell id="2KaES_GRqSIqltBoU0bU-20" value="" style="edgeStyle=elbowEdgeStyle;elbow=horizontal;endArrow=classic;html=1;fillColor=#009900;exitX=0;exitY=0.5;exitDx=0;exitDy=0;strokeWidth=4;strokeColor=#009900;" parent="2KaES_GRqSIqltBoU0bU-1" source="2KaES_GRqSIqltBoU0bU-5" edge="1">
          <mxGeometry width="50" height="50" relative="1" as="geometry">
            <mxPoint x="281" y="130" as="sourcePoint" />
            <mxPoint x="331" y="80" as="targetPoint" />
            <Array as="points">
              <mxPoint x="260" y="230" />
            </Array>
          </mxGeometry>
        </mxCell>
      </root>
    </mxGraphModel>
  </diagram>
  <diagram id="rG4TMu8k7jQmJf79oCPJ" name="Page-3">
    <mxGraphModel dx="2674" dy="1562" grid="0" gridSize="10" guides="1" tooltips="1" connect="1" arrows="1" fold="1" page="0" pageScale="1" pageWidth="850" pageHeight="1100" math="0" shadow="0">
      <root>
        <mxCell id="KiBEYHHfIy09VV7ayXII-0" />
        <mxCell id="KiBEYHHfIy09VV7ayXII-1" parent="KiBEYHHfIy09VV7ayXII-0" />
        <mxCell id="KiBEYHHfIy09VV7ayXII-6" value="" style="shape=stencil(lZPbDoIwDIafZrfNtu54jfoeJKIsIhDA09s7Mk+DDPWu6/6vabt/BLO+zNuCcNoPXXMoLm47lARXhHNXl0XnBh8RXBPMdk1X7LvmVG/Duc1H5Rgdm/NY4Ro4CpSOEKe3SWIT5JWrP+QalP1DzhGoifSMgcA0gAa0iABuQOo0ICQoHQEoQbM0IDVYjAChFltS9lnvCfgSTKQB43ciI0AvD20ZYAyY5Rmsma7VcjAqDTA6e+eP1APxwdslwWCvu5R99OyBvyznByDqY+eqatKLD6bu9qnwM3B9Bw==);fillColor=none;strokeWidth=3;" vertex="1" parent="KiBEYHHfIy09VV7ayXII-1">
          <mxGeometry x="548" y="99" width="52" height="3.5" as="geometry" />
        </mxCell>
        <mxCell id="KiBEYHHfIy09VV7ayXII-9" value="" style="shape=stencil(rV3Zkhy3Efyafe3AfTzL8n8oQpTJMC0qKMrH37vgNXoGWeismaHeqF3kNo5CVdYFvcUffv/4028f3oL7/dvXL3//8K9PP3/7+Bb/8hbCp18/fvj66Zv86y3++BZ/+OXL1w9/+/rlj19/fv/v334aI8e//vHln+Mv/PsdF44SByi4/7z/wB8x/+8Hf30f/vnTr8tw35fh7nDuerg/WoLhMbHhuS3Dw9HoX0/r8HTkwIaHvAwvxl9361/vR+50uF83MhzZ0/FlHZ+P0p6YvW9HodPP68GOk6Xz73UdH49SmSTgWZW5Ydvx8QirKIR2xMLG91XSojsKkZ101LCOj4cjkpyPtO5PzEeM1+MLnlesRyL7WY6ynlfsVDrr4df5J0/3X74O4+ORyHrrlK5zfD4Cnc//L8c5vtKrrse3o9L5l3U/szsynX9c9zOfEnix/329jzlNdXExPq7ymfPRyPzzkdf7kkWdEHkQ+Vz3J9cpIRfyX9fzyu3w5L4Etd52BLJe0eRPjRdlW3D+lYx3czfuxjsib25+/W4/E9l/N2/33XkV+vcd7H86/CLP8o+blXw3sOfvrsxnQyMRj0g2RQ1PU6tcDAed4B09IznBVSZ9p3vYpkU4dXI6IrnjDW1KDIcjOrmhTk7uSMQmNpRhQ4d03B+RmUD2s8/VnQxArCpZ76mxz/F13oKL8aBjq6M2pc/VnX9fZrjI8CsyWXHWBhMRzQ0U0M+fXEkNMBFHNZ/I4Lrr/eh008HwcxmWj/d1+iIzjHcJ0Skw3rG/H3A+dXLg/fiEiqZQuybjgXjlozMWm48Khmpa0v34MkXwNr6y+ZejIk2mvLQiMWqUh8h4JLKeKm4BJGDWhZ9AnRt+qjUxdnxKZb0xsobCZKhOanZHHpliEAAcWgqTf14BGqjCbq2hgf3M08LvAU0ZxM4P+rwnp2AIp2drEPO1Lrpk7hI19C5F3wZ20spAljb37XKX1ssgGrcb0gq33039cXV98nodagCeoe4zOFI1HpkB0tSHJyBR/evjNHInoEzn4UpFAnerjfIU0cFwgWo3DCU4g81T6ZZzXveoBbpHyjlqEZyvVwzr8JGBLwXK4eXXCQCZOr0j4AFeb6QCHdTZihvI5HMQ1PUGpPOaXgHQUcvz9K4AHS5loBZcSCdc++qpJhJAWsWnNmoRBADy2RxM6SV5cMgno6c+kdBx2BobAHd9RDWYclCUOPZpz68AELcyBEh0LvADcdyZEyCADIRFKAb/QlSGhprjNu3QnQplvF4DRP+wYM4GUCC69IoAbayLoZnr3IgTkLlmbnOr78xRZ5fRYVxALiOL2QoAnBixkCwwM4LCQJA7v70Bo8hCCxhFHgoFKGyZGmMPyHi8BlO5ce47wOp5vqRQmtLmiZ+W4mSp8fh9Vd5GNQGwNYkr54pOfKnU6R/+JwhQ4EZShRprpaFeAVTQDzyWP4KTcN0dDZYOnzvhFwJfNJowno3Q8U/RcZ5PCQJqBjceAJDpNBXxo19wVBmNRYPLUag1G9sK3CNQxT5OGu6D2Dfio4wLBHSo8EU3jBNbhKuhryiuH5XWPs3pg1Gz0DE0G0+jfgVoAGj0HKIQnfVOG8kPAUD0OlYaTY8eNZ+xhqhyhclTGiIADC5Gaqfi6bfdiQZdQ0B/10hp6C/kRInOWANwr0ZFY9BLMJ2eRiTHtoIS4NxLABCdEa3R2Lb6GeJ80Na+AkjKOHu+aNwlrvnGwQUEsBhWPN3VR9cgnEdRmM4AEcNwwqoyW0NEkiRml560BmQ+pYBcw4gKxIDsVtx2qgTUBWqZ3zg/d/0EVBqtFEUG5KSdSY1LVRkRQClcR/vQOg0NDvvQ8QuNsVvlA8ii83d7v1H5poEzQwEElW6igIbRusAjXQIAVREKTQYMuwdTajRqKmasgiV0tKxCABFsbaTHGysmNi1bWzChIQTDs20VAJjOyvWj/BqcBjFEzNaqFJSRmBMAGDaDSsrBQYTPCEYPOqE0MKsnEUBRfgyjksLSIEgpAJZpEQCUBAhD90RVJEWSBMDytckjDbMAwfzCK6pCvFjMyOS59v08NOD04R4EDNpALsEGUKi93AA6vfkaID9hFVLy6wKEkzsvAwCEM07acAmAoowzOHcFQGYUqc0XACZYqvUFjBaLd7IY2JckLiot6mgpQYoYAhpuFTH0AoBk/y1UcrVSII2BV1QJIKoSO2bNxuZnBFCJyxhpte5lxvyEABrbpTLp1d2UmAMiAMyxVBp6SSpGYBQWJhUzGxSMTamhNRseBtulNq3jnc3PbEodeYsoI8d0S0dVMbgSO2lVamKQBAFgArpQZqS/IN4vvUAdKyTF++180ViCxpnyLWV+p71YDeAoN3rOhDeMaFVP3QORVuBeRvJ2iDfE4yuXpYJUygh2joAXuAeeUilRAnDSRjZ2VJoqv47W8io71RItHhQA8JaWaEL5Fvu5A1CtoeyDAAKTJWWB1BpeMWzCvIvyWCrZyw2AU6ktgBm2rBI69pTQr+uzKOgSAOFERwMDwz+BSkVPTyur8vcRvSASl8M8zBOQqOkcAPhC4eegAVzHa4Dwf6aBN4BEsxYbAKcwOahYdqcKVW+rUeY9ABBDzTR2l3cxVMayBwB8Ikc9hSGtEIoLtFVjAFQM1VgDRHRKoepu8wVOy/WNE0eQxWr0wRnxx5HJgcy0o7mdIQgJAYwOZ1VMI8aZsaocsSfEyH3nhEFXGwAV0RYgow9gAQreOBsANMwCVLTmAmAMPauYmRwcC1iOToeMANYLc8uC3AGYlzEAKlr+/ZXXqaFPaJRvCQDCyxagY97YAAgJ909VlI2clQpYUoDH07IB9bk1BHRTLUBUptME5GcB7alFPyAai8T98unz50cpoTpioyxxA/CUjw9PDgC8HkKOGA7A4/1SALiQvk1P6UEq4ivNww9rEBDAgiM5YnRtlNIzmUjoqhktnTmjCRQACwALAIIjPnHFqKqRBRCYCVTK3cfJZq4AcHM8ltpa1sAC2OL96s0pERuajFYZAfiCABZxFeb33GoFgD1ciYaZBQAVLAJgFLuoygmfaRhFALjoQpMzwo+rAjAuKAAgXsbdFAAkfkfTB7tqXd3+xrmgSv9YCkmnQx1317oK7ybesaza10LjLaodC7TER2XdDvoLRpRQr2HcVj6lpLwv1taadQ9eoaGgfEa7Ti4YrF2CWk6jmlwAUE7YPK2cyCo02jKtVdoCWHXgBpCmavueYJNq3bNPS1f4sdr/cVqqjZcFUIvKsmZeIiuAooqsaCO4RxM42CFXqOBcZx47EpUN8a8bm7kyO9jc7akGfuDgXraZqhQ+ZurNbQA8Nlsa2pvI3wEZ5eAdAXQ/VRuY0YcxoiUKwLSQAKCM3sg/ilYDtSUA1iZbMmYSbhWOV4Co3C5q9xOawFhorbiIKRTqJ96vPugUJJkybZYrqo7OSDJpdmRUoshlxvbXQGOixaNjZ+SMxhegLI5XchdV5WbUu49wI1i0znVkRAfbsGgiGlDqaqSARPigzah5muwrGWWpOc60deNlo2Rn9JY+1RY5zhW+wDs1tSIzWmMEABzSkqWmSogyTSeOHoCAAOrxNAyiGqHmopLf9howJeo4+dcAzvA2gErJvwY0TzNaG8CfkeyTs8HiamwzUrcmP1WvU87HAO4A1CiUzRfoaamCjuET82sGzZpDifPTAjfn5uI+eFrFc77Q0YsvjoaCqsPyRKO5vqrXxnKjj3BU9fiZQc2rSmPlSht/HxC+VzlkVQ28Bv/aADp/vUrF4kbZDzuxtKlGYZVNVdfS8f2sSV21QBMtAsBOOt7BNXpBnyrpHwDwlSMkHl9RW1UVnEf+5IsGjHA5ufIakBPVcxtAp4EKDSiJ8o8NgAeMNEAlrV7afPVIQXE0nFFV1nM45fyqoL/LWxyqCltn/kbMIGLPKTdVJWW8riabj4GrOgOve0BXzV38vTcB4INvhW7raDFVrgp9jcup2EmhdfwCqOoLDPCALL1qAlpBqiu+IrvBG0ClJlUDRjKdaHQNMJ4H2wAipYkbQKOlVRogt5UFlTeASvmcBhitzhtApDHiDSBRY78B/BmPLTRVDtIjfTmrqYY3GwDRCQuQ0EG0ARCSsQAZe64sQMF6qh4hkqwAEP8QAH3kr2IcSgAsStRUeE8ArGKrqXcHe6DEqXUkTgJgSbemWtl6oOTvAeF7WZPu2o7pq4wKYDwaIQDwBFLl+6nSpImn51pUTfKVG8uEAW6jh61l7GEzShcF0J8DqIfzLEBV71cbgDaX+Oiim+ooqrTQtjWsmxUAfdC0Y3LeOjiVJk2VvgYkAO0bME/ugfvw6lXrGSs7jccftgDWKC6AqiPi7AnUjH5rMp7XzPi2yaiWYs93qgfqDDLedRAq0RfDBICkhcdJBwCKHCvlIAOwWgTROEzBCwCexjXauAdAkQUWJ+3qzaFeKD0VAFQ8da62u/LTeqedxAKA5Lx3/H3/HrH3WD7BKpcHN0i4CJbxGZYbvlBpPqarh61v0rIHeKzCkp+s+ZhX6KaehxEEEQB4Z0aMS/YSn7zv/CanTVzGEDl4q9V4xF5EePP8HJOHoqys49dGv6TqKD/tqkXLcDS7SmCMvmu2rdqkeWrSum7G89QNvLuGDyIekL7vMIJJmXyqJGyANRf5B/4PTeRH7/8zlPjjfwE=);fillColor=#60a917;strokeWidth=4;strokeColor=#2D7600;fontColor=#ffffff;fontFamily=Comic Sans MS;" vertex="1" parent="KiBEYHHfIy09VV7ayXII-1">
          <mxGeometry x="-111" y="81.66666666666663" width="532" height="98.58333333333337" as="geometry" />
        </mxCell>
        <mxCell id="KiBEYHHfIy09VV7ayXII-10" value="" style="shape=stencil(nVfLctswDPwaXTEEwec5Tf8jM3FqT1074zh9/H2haqgaZLRtcpPFhUgsdgF6kruX/cPzbvLu5Xo5f939ODxe95N8mrw/nPa7y+GqT5PcT3L3dL7svlzOr6fH5ffzw4ycn76dv89f+LnEJQpxDvLu1/KCM5X6583nBX88nG7wkSq/B19Iao9ngOdEkmxAoJK3AzwTZxsgJAICCiWxAUwe7CCJks2hkudtfAgUbQqZxAFKPc1rN/hIBSQQSyOk4ROx38YnoWxrpgwgfGr83TDKBQbUYAK8a2V/OyBStBkrpRGnIDaF4KiiHZicrVkUculdpAZcBVWFdU6OFFBAoGRZKoEY6Gg+sWWpOiqgDpEpWZZqoQxoHQPYOXJIq+MWtROfPvxtNkufWte2upCW33WSowCoUUdVazHXTP02Xh0iHR6l6QMF3+F9AHjp25yjiM7DlHOHL6BQusxdV4SW50LRitPDfOembLUpsEXwYOAI89UG0o0NPDXYU3SdMCkB6fPgdx0bAvxe2+dWfIX40rrHSqi6HTA6zFXxzc0bc9V1BVDrAoZCb5igQyNu44W8xevUyWistvqveO3QyAE9fu7x7/l+VoeBAks/tLO0FvB/fGatCMCnNuFWfIXNedBDUcdjgfraB9iEP9I4B5lFB2UwHiNUyLsfAxJsDRL7y0BQpYEd5uUuYN1zay4GqwX1SkCXgaH76CELEHMO7Y66BgjcoUgvB2F4GdBJzlb/4qDeqtJqJ8Y8MwGtdbh5q2ZRHW5G/+YWH5Ho8FXNFJH/b7w5xdPheOxOog/93x99tfx1kvvf);fillColor=none;strokeWidth=4;fontFamily=Garamond;" vertex="1" parent="KiBEYHHfIy09VV7ayXII-1">
          <mxGeometry x="788" y="131.79999999999995" width="62" height="84.95000000000005" as="geometry" />
        </mxCell>
        <mxCell id="KiBEYHHfIy09VV7ayXII-11" value="" style="shape=callout;whiteSpace=wrap;html=1;perimeter=calloutPerimeter;strokeWidth=4;fontFamily=Garamond;" vertex="1" parent="KiBEYHHfIy09VV7ayXII-1">
          <mxGeometry x="244" y="327" width="120" height="80" as="geometry" />
        </mxCell>
        <mxCell id="KiBEYHHfIy09VV7ayXII-12" value="" style="shape=card;whiteSpace=wrap;html=1;strokeWidth=4;fontFamily=Garamond;" vertex="1" parent="KiBEYHHfIy09VV7ayXII-1">
          <mxGeometry x="-409" y="229" width="80" height="100" as="geometry" />
        </mxCell>
        <mxCell id="KiBEYHHfIy09VV7ayXII-13" value="" style="shape=stencil(rVzZchRHEPwavU50d1Vfzxj/BxEIozBGhAAff+/q2JhlJ0ubxa79JqTO6auOrKN5kDdfP7778vhQ0tdvL8+/P/719P7bxwf55aGUp88fH1+evtlPD/L2Qd58eH55/O3l+fvn96d/f3m3Rq6f/nj+c33h7xOuzy2XhSrpn9Nvsmzj9JtfT4BPT58vAWPrFQF1UEBNN86QYAbd53wd0LcBM9StdAqQeQS0LSsFJJihb8qW1LYmR8Dcd3UNUMYBUNI2GgWk4wylbF0IoG7juOmifA91m/kIaPsxXF0S7MFOKVOAHG+6mLDwUwLhKya/TPj6VhIC6Ax9awMBjYt3dkui9zC2pgiYbEm2xeM9SOLiPTcdCOgc0I+iIXlX2lcBI23paDWk0GM1ANyDCF3SArQjoG5CrMYCwJIaVaC1h34EjK2wi5u72ToD5n6V1wD1eNOadpW6BoA9aOaiMVCn1e5hcmPcEUDNzHBLkl3grynQnAigVsMAbtNH/2A//PBfJ9d3/ts1xzbEWWBuvQygtwLgaMwpJHL4BgBFNqegROIMACK6nAJTgoKHb06BCdA4//kMCNTMALCkzhVZ9jO5MEbBKZWj1ghXgnVxABDqFJZoTAQwrTHAdABmKoZuAuauUIJhgOpOibkdAwznRai01i0BoPM9VOc6K/XmBhBgJELNnQE0ISDYg4K0FmqBF+A2fai7G7tYEr2HimbGWFWwpO6Olep0RXZbAjNjvA2WNChfGA1VdLEqtgcjq47z0FNqeNOLwvAZqqMwVKfN2Qsu6chu7/IidhDgFLgLN0DpNwLAI+e8C+01wIDwyFw4O5qJNj5zczfTfvuXARgRIAOAuVvxFFmSARQ8Yac0ZAFgDzPaA4R4JVOt8XswUyF8SRlmEGofpyOcZipYTLgurjlAIBoNl0SNkRH/gZumijx3Qbg4VhZEriWBaExOy+cuzGfAoMZouljEhI9RmJmQYGSNZElBRbn7N0CHJXH3b4DpjACdITuNO8vvNQBEnTxKtfEdxweSFBnKg/398PTp00/a4CnIXAZXTDfebDLTSxvfcOmJ3daZXl4AlAPAXxqAxdcGEOdF2PEbAJNsierlFJSHnLiICpoKnkix8fO4osF9iI0/fr9TvzkVU3KcFfnxgZUQZFGNkqh1PvOW9dgFVDgfZnnXDYNN4UkdA6jLu1Kb4gGVX4Fgninz9J3f83LKTA/cpZl/omKtaKoDwm8ADIB5SDEtQmgIoFynobspPH1nACR4g59SaCDvNr0dTyfxlbjxAenqmGK2cIodTUeWP6PvI/vgYYQBOviCws1Ed65euZb13e9eaBn1BR0p1wIEh5pwSVQHhnOAwtn4wGKFnRLdw3AMKnMfPjAfsvgNBzh+Q82pjS8wPtgBLChwfwMzD5Pb0rPK/ixFGI5ThEdaQPACUmpLUgQEYgH57izRHsBnZh4RzflKaZDOMF/xaSx9bQAsb1Z6rDklVxus/0PmwT4ChqXzRMJy1g7AjOmK0RMClAMgCDdAIkpmgHYU6jZprmsl0AcCWExtABC5xuus2RWX26DWNA8sCBqA+RyLb6Go2Tqdobi8gAHYHgwALqQ1aoxWjN4RQGcoWNRslc9Q0NEagM7gyGbjedPi4gkDMBpVFM1XU0peDACZ2cbdoJEVDCmCGSqmjAxAj9Wl1BtPFq8UPWw6ED67V5iBq2ip6Ag7L/0WlyFfnQj8WMFqdG4EFuC4pMFJvwH6kXaujDYhbQsADHtEe8D0SQqXBAChkc4rgFCWPOCYArrLT+mtfkoxSdmVcvLlscFPnZNN1wAC1yvUVGRXiBo1WhIEgYNnN7KTuFmoqTDAcLdFXWfFZLHFAawva1W3gQFzSusBF9znv0hQQ3c2eRrBAPM2QMfS/g/2fM3p546HSU/f9VVMbneNJUBWwADUnSUs0s3GLUpGWjEDllCwPWHyKk5x/QwzsOyKgaYBqNO3wFURELgC8OGTa3JpLm5Uar5W1bwggGXSVw/cTYb6J/Th3nxOQUuqPD9TUITC8bBVGy/k9AV7GG18I4cvGCSv8fT7UEtyrUXH8YpkKOi/qtikpoWeT0PCqDx32DD1Y+Npi5prOCu88o85BBtPWzzQxyjnfhO1UXmP6ipaOAAlExmtovLeHwPgkXKetfJ/bgYmc1nQTSqPCgzQMgLYLRuDguhMeSevAfwMzO7milGyKrXs2cUdWiN+A6kfA7BsVHZNKsqbvLNrLlbe2rayFcUB2Kab677k3sl4CBRJFVNFDgBlXuXJ4pUPyQ7ANu3S0coj/QUYCDjK0l0kEBW/BkEBZjRsPE124d3a+Em/DxSzBkwFPaWNp+xsK0fRqY2He+iZasD+8JZqp7LsPHHlbZ2CbU6Vd2mIu69BlVH227wYz87HPL0bzxTFMdHKQwhFTx+Oh9JoOL7d9P1YX+7niNiqx1dSMM0mfSft1yTfjWea61KRcrZx18YnHM8kv7inDLxw7yxD8M4gYzXXxlP+4N5icMuQ0YALz2VlzGcLr/JnrNlL4CAw3SeBF8UAzMbz9QOnDMfjq42ABmArVrDf4t6dBEEwcnThjSWuQ18a5dBmaeHhDJdndc9g+KMtxUzW0l+i7xVjNuGexWWZhKdeGnqKYLyjVOH46fZL+7Wx8BuOx/vl4yeWBMLx46b9ZtfXGgPkphuIPcy9vsuVYrVR25ZcPiQaD7pu4weR/YS+URt9yZpQd5XresJulbUeatuAdWpQacQnIMqzmuK+z5/UKabRlffzVMfyEn9V61h25g8bsERSefePiT4kUCpvuM7Ou1deJ82uTlp5FndVS25i2iubDkV63uSVncVqmXvI5GYI6nMuhdJ4RmTliaGwGpSf3XORxiPxcj7ECwBdknvX0XiS5seDrzOAZ6bExbSNv1hYb3SPrswujp3SeuUGUQnvAjcA5OujME/RWwZxrajrGKw8Bexq7pW3DEnFRlvTadY/Lq7AXXkWWNwjs0p75cH52Q/4vzvYr07/M4S8/Rc=);fillColor=none;strokeWidth=4;fontFamily=Garamond;" vertex="1" parent="KiBEYHHfIy09VV7ayXII-1">
          <mxGeometry x="-378" y="141" width="998.5" height="275" as="geometry" />
        </mxCell>
        <mxCell id="KiBEYHHfIy09VV7ayXII-16" value="" style="shape=stencil(nVzbshy3Dfya88oiCZJDPjvOf7jKcnQqiuSSlcT++4A5xdmdxmxjd95WR+gdDgECjQv3TX764/Mvv396y/GPH9+//fPTf99//fH5Tf72lvP718+fvr//0E9v8vOb/PTbt++f/vH927+//vrx799/mZLz07++/Wd+w58fuJTD1icqx78+/rKFkv//h79/yH95/+rIx/SKfAtFqPwYB/ka+iDyEnIB+crWL6FuB/kSRiTyJcQG8sLWX8ImB3kJne3PvtybfGHr0e1rIB8Lkd9QPofO5Huo9RX5EeqA9SQin2PYCuxn3Ih8Wuq/6bcR/WZjP1sYbD36+OP7prQs6hxQQzwqTFWYKgX0o8XpnkkngIYmqns62DvrETy+c+5haxQAh0bU6tg7tDDSEbCtfX4EgCeUFAZbUg05HgF1aeYcIOhYyhYq29a8DHMHjNDYO8SQj0enpiDMF/WQwFZzyMS41XJGQYAwgDqTjEtqZJfUmBssKQYh/miE7XgcijoEIt/NprYg5Pg0c/zVIRO7qOheiq6fyKv7NYaaqHwG98v9dVnRbpeP67Q+koezrA6ZygvIl1CIVRfcT3WYG4kfFU10OnCir4rfrwFlI/GvLW3u8m098VRed+O4n4437XgmNeAyZzpCPHqJxPU70KtMwsDid1zquQMIC+AJNXyjPI8AcCQVQClRRspyI2FPc7ojB9QPNwL52/uXLx/8c///h+xS3cORDVVnKRYg6/WfBdRXAZ1atAW0uDjVswDHJCxAWZ4TaAAwQn/ppTeHZlpAC/01wODE2gC6Y9YWoJpmwdICttAOmj7Y9bM23ULbXlq4RsTjAe6OPVQ88b1QJ60+sB/JU2+UxCoA6JluTSYUc6ZZ8NKd5zXKto4+ZcS1b4/cHBDxkSmfG4tP7vI8EnRMDEYLkZx7tZ7jG4+NcjPdQHhh3SEaKTf4fn5g2vq23avHGOIBcMmcR0hgO445DwzBXSgFUkA77oyaM+MoM0c05sxOunIeXNJG30FzATC2rotkWV9eutm1laiLzoJneMjKcB4lopD1qT0znz4zJgBwqpVNtqEWXZ0kDp6g9IuniTIQIAfAFRNV9daj6RdnHWeAxrLPvJKi+zSJqxdsWnlKJA500vhjolHLchiPtAXEsqo6uLYqJJOdhplZGTmqV4kNPTVjmfwdsWEsYvro47Y2rJ5djMDFsEqaNreTxJwCKlbBpnp52a8AoKyveFhXPDoU5a2ZBVQTgasT47OxBw1gLMabU1N5BNPcB2u7cQWTJ5OlaXFsSb6mL6cmSkeOCpBEKxdz8QUBrHSZIjoVictrPALkigDKyvS/BQGRKwBITebp/wQkBDgvjYBOCzwKgFCsgEi8kOF9mVckxuKpd/KNyoNduN8vdv1kS8fJBrHY1LF8PN0w5a3NGFGhFTyo2KhZM89lv593CMz6hVezB5qocB5k9CW8Q2DPgPBEQAFgQcKJljpScHPeEzIW8L13ML5dnDaW6qgjgPEVDTfpyFfEKVPJCl93dtTZwd8j6p2h0nw+h+24pOxUPfLiP886r2R8RedlkmSewNtN1pamN+IxASi1646GeQDb1WGaTZ77ko7yzH09EWevhvCZxWWzmWRvNC+ADEgBwhOJzZTvE38CRo/Ge3fqbA2AHZuZ6w4E0Gw6LX3eAZqTfm8IoLluPHkHFkJsZ22+AwdEY9WJseWBFTHvnI3lcO/smhbpBrLlGbn4E6rxd5QtDxNpEw8jA3vljgu2elAnX5l5R9NeE0rWprUKAmjKmFBxwhuEM3XvCKBn2pRynMiWBRmet0uCTVdPD8qIBAFM07mg53NsaT4BThwPhbexlbvzQAc75IQ3s+a3AqwToG5m55k7oIbBO/5IzXnHINv4XynXPnHGldZCp6s0L00LTX6Mu5wByxoS2Y3I8WA7cd/Lak66WVYFfwc4KXPFaaWSOJ+qiwHugMyLHA1rWMUdoEoGsLHQs6EXLoVvqxm5Kk67Z5glFTrJogCI6ArYXhp9cZ5gA0Phcwvz5MRXdmkyq4x6YB2oSfaM4mg9NONhVluidDKbMrPj57OZrkncbWdMnvXEsSqhHX+Tvqq8j8605wQu0/Nmck4n9ltA5i2QMwCbzjwBJK7ihhmDOOOBG9Z1nQGhk+E9ntXa4T2HeN6mOZ4syd0izH1Wy07/dpJ0UobUsViQef95rtiEQTZ3PMtOkKc2PoA4zLbyybFZeHrtpcdJ9smCm5h6sKO4WekztsR64mI6rcLHAyfAUFtWNZ8Ak2KwAD2PC7Btoc2+W438rrSVmC0NHKKcxTN24gZ2IWQfi3tkfPjSTu+umwKgk9T7vvWq2y5mIJ2b9Zk8S82tfKNsp5iB90qdkZmgnMoi5mAnQOsiPw/kcQKU16fFHDE+pyLrPD1ZqbWVXc5P87KT+wSb8VkTAfmseDKHhSfwEbvQzgRuxJxC9ycT+4zYN3X0FU1Zmqd00QR8nsZGc9T5+YpYYlZG1+j+NNAXH20x+184YTHzq8phC8tW0Nsqq6ahHu2n8HkkwfPo0Hwx2Ra3/4LlU5Vn+19OEkwuP8x62PmqJqcWav/VJO18P/eayp08n1j34sXVSCRmqpF2Goz4oKmSEU8O9THzd7xPKisV3OUzjYuCZYPES6uCekqc9hSchk38go0ZEU1tzdI/svuI8mxiuGBNIvHxFNcarppZxysIvEjYkZTzbooZI90oX+5mGpMOKnW83rB32x+JH8/qoGWgDYsJc+KHqMjK8yNi5fl9qY6ufnap6SgE3u3j1Mjoyrks4lrO5dKsKUQ7hdaEQdyZq8qmn0Z933RdeOuUToZlzO95NdB26uuqKDySh5KGe2sZ5iWcprW7/5c127GM6Wj2RJ6Weo18pm0bK+/eVTHy7KqplS8rX3lSnkedM3nnnoqz/5fLnbJo0u49eKXwRJ5OChh54TzayJcX1+OU/I2801wz8o2ecSvPz7i//5c1a4otzpsaeWfgwvSknDdtOELojMNXbC870/AVz8jgvZxq4ian0tMHQCBPfKzG1cDlHMNwBOeqgFiH5gAGFph8AGbMndpPMSWOwuvEswvbDIDlqAkL/ApgSarmjFAnLnycppib7YXPG5RilsSbFKVhAqQANrhazE9nFD56pyvGNiufR6u2zcprQdXwksJdRRUkSh6gYjnLAzSc+yj8nlzteFGu8MSvmpHGwidLWsKSROHdpZZNzYP3floxsZIXvZtxwQqI7Akbzq4U3vBq3fSWOWAzhUgPYMaaPUA+URwFmNq9B6hYFPAAr27r1k35jAN6PDENCkg4muUBBJMlD2CuFnqAij0LD2DuRHuA7dUlnXkNB+C9w9uFu2e9GpvmCZMCcGv4TUEFoI/nRL83M7filDkadq4VwIZEuhlqKPxXsLoNnbzpMu/rgnorv7XS8XJV4cOACoC+SOEt1m6auE4kPLE4fpOpd+Pu+KX6uUvgjDgzV0CCa4l8TrSbnxer/Np+Nz/QU/lAwHRGCQFs9rubwdLKf0rqiSN6uXoTTbePp3Zj4Mxqo0X3Jx7grV0/4I//6Z8+fjhQfv4f);fillColor=none;" vertex="1" parent="KiBEYHHfIy09VV7ayXII-1">
          <mxGeometry x="135.375" y="-579" width="411.625" height="242.5" as="geometry" />
        </mxCell>
        <mxCell id="KiBEYHHfIy09VV7ayXII-17" value="" style="shape=stencil(tVvZchw3DPwavbJ4E3x2nP9wleVYFcdyyc719wGicHemsdMjqSpvisPeJYmr0eDelXffP3/4dn+X4/cfT4+/3v/58PHH57vy013OD18/3z89/NC/7sr7u/Lu0+PT/S9Pj79//fj8398+2Er767fHP+wT/nrG1RbyNFSOfz//Sw+t/PsPPz+v//Lwdb++dVj/3wfcXt9DbLA+Jbq+7/fTwmT7GSEOWC+Rrh8N1je2fwkN19dM1s9QcX0ex+tb9OtTJ+tTqOU163MouD5Xsr6EhOsbXz/QHxK5n1ZDlN36EbLQ9Wn/+RIG8R/7/P3+UwyFH6DvN5Ty+ogjQEl7gN4BO0IOE75B75T4qAIEzjBCOgHAN0iozOtKyPANMxRmtssRFyDHFdhHdgA/VUAngdbUj+sekJbrHgGkI2AyS2tq2Rsu59DYoUco+1yUCz+0LN/fABqzgzozfIP6LzvDXNlnAygk/nt0W6qhky31dAPAIk4B4wSgf1zrz3Ppuvy/o8KkG5/7j1WHIzFwa30m7qPr697fLuc4unk4ZllRerQ+Y2FKzP81YveuMEJliX0s390kusTdv8CBNdcz52wh7gMsaa1naUhvBDLj5FvKLiJTEGYErX6QhupZeW2Qhjo1g9XvuAcILVBKEAYA5rLkIaNwgLnLKm+JF597tGhUVpYkFHklYLzuG9T6zQFY/nTZzQDEHzSIgf0pgFV7nyWstBJr9Yz8VYNgMkBBwqgAlli6koGEgMoynawSsQEwxjLiqosbAtKJ4UZ1hmu0Fo/hztDoliRhtU9aNIjhpGJfoIBGypKII4KVusZMyExTpdR6FmyFEi/eU28dnK/Q5mYqN3YAIYeeEmZEALP0nEEaAhgnSvFShg8Rb0lfMyMTkkW+bm88YyALJeFqrLrPFJPSg1nx6ueim0fr0Rl4OZ6O7yqgs29oLv0mmrpmRwaiAMbkFDAAkENmgOHOkCm5nMMl+LKi7gjQBgJYclRAd4BBao4CoH5b2POgxG+otAzaGRoChBluoCZj6Ze5Rl+ftwEM7hrIBdVZuPNh+uVVTeNhQjwMfq116RIbAEvwGtHFsYvJLJ2xJdUumWkhWhFutNVsS6dJbJcaPz18+fLC9Ghxtd+70sjI8nTGdqIOKgkkt/faab20MNnX/FopeTdKIAiIxEvNxeDQmQaOmqfvna4mWhW0Rxx7p6txfedtQMYCqwB2Bu1PAFCQ7QOgY7awLRGn0z4Rmii9JcZb1ClB4lM7sFJlAPiGTnm8bmkCYIbIzwAqonZ6ndlhoGu0S8E+AkAsmxxE4sEODQBZ9O0IAHYwiYGUKmUUYIeeFqk5AoB7a7PBxPdy8c0LoNJrVQBom72vLvEIkGFLPKdarwv6b6TapgKAWI20vOsIAMR/FFqf1XCgc4xGpSYN0b6P6cE7Nk0CwGIG75xNyXQAIQDNfBBACmD91LWh2wCYkpIuyszm0GwyICie6q02phY4/Uv7NXKpBZPS4GpuQrlDHY/xi7i+fePZrPi7vshCh+wnogSvsRmJAeKaa22yxWAGCx0GS5MSgIxzEJO/yXon9rVG61TFwNeMXZiujIMfG02RojMwE7VMM5Gs5mlbchgFRtXlOoo7WA/tmq1n5CVix3lSA61fdABWPxQgw10Rc6GIacgUW2KD5OQ1G36xNBSxmVIrR2IF66rdlpgOP9d4d7OeqjqLVm8ulem/TrZvfO7gZNo6aV80ULtTHj/J/gVbcuVqVFhDJ6ptVbeD+yn7+1fy2LmFc0MAq66magCg0CcJ2rkUOEJefnsbULARVAArx1eZbgtgkXberr21ExT0z17piFHwvYOup50+DnqVY9KuLuJIRgHMgRQAgosBmAc5h1AA0x4UAKMxBUzuclhbK5XW7ImAswI9dMYo6I2+k1AATIk61+wVgGfoNBGZ8jYRwJrl5N4AdD47Se4NQOe099y33xo11gk5dnDSRUDIK4BlId+cKeCk/ct7gzWuheZLD70BnLSwAwCVb0kwlpXTZeKlBoBDd1q+b3xD53YQ995pUD33BkAoz1dAcwAm9SsAOiFl1uxZiAGSAzDRyF/rpEL8C9z7zcpjQloqlfJwBRR4sVXoxDQlzCsKEC5VwtBK+JQrFWzYhb/LMYG+IICNo1JHlUIBmd2SIC9VABseZketJXNtsyBTUwBrwO3lpCDgJF0kB2Alx6tFCmCvQUvGpksS9aVSkAsagG3Jzfl0S0z2VgBq/IXmyNLwBYEGEKskBgDDddoiGADOMGhS1TOgL02qJShA9naYabG4w1sCQOVSZcVGcHaaZm4C5jFZeHm6g35Izcu07pSwAZSTdiVhcld/YOK40dl9+ZBGo8YA4HGdaqw3Dj3oq+jk3vypA7EgMIYN1orURT3DnpnKMwoAYeDE46xt3BcFm7Bzhg1Pteegj1x8F2jDZr4lqIRTeBUpKDoqgBa2gn3IFPqiJLnnTPbGhFm6rPHWFsCutWKnM/mwKDWcm5x9g3spbAB2rR210LNDD6zmdq18UtmqAzD3djqWAVg/ErFOTf5C5vp6egsghzYFPiOAhej1reYWwAhGw25hnnD57iJOqIjtB48WcezQjssrgJL/eSMJUEYSsT6cZI2SUMm2JyqMwiTnGmM9hj6iYcVtiYmiCoCXRNenQke8Lf4f1Xyui9hUQjakuAEYVC5LTuYXoU15csLC5A/FbLCUEcC6nRxRAlayxiRjG3WBPxQ66lIAZq+TWntuh7f2p/azEvjoSX0zR1RFhJdATYz4EyThUlBCtqwA1r5nx13kJKlk1FDlksiOcjWkXmN4HIAtwljvrY6Se3OAxNtNKOMKoNpRw4mmOhGr+1oN4MGRAU7e3sRXfgO2zIMrOwNFv7NrHShnnVnaPQcy53vVUxo5IQoDS6BGHBNHDADl4+TR1ED5ZUZaAv2WJh/O2qEFAUxY8Lc0T8SR4Thkpj22AhoACn0Q4F3DnkTyLcEgxfI8Kz3d2aHwrNFvbIkNjK+/7t0CeNYo7pbo87jqqEjhAVQxRCefgGWnLhqAK3PJAdiUPGfMfLPSztMKiiCASUi+ZFlF54DXUYAX1Ok3U4Dkng5H/mPBlyDOdqN/4I/s9Z+ef6Bf3v8D);fillColor=none;strokeWidth=4;fontFamily=Garamond;" vertex="1" parent="KiBEYHHfIy09VV7ayXII-1">
          <mxGeometry x="22" y="-590" width="499" height="429" as="geometry" />
        </mxCell>
        <mxCell id="KiBEYHHfIy09VV7ayXII-18" value="xxxx" style="shape=trapezoid;perimeter=trapezoidPerimeter;whiteSpace=wrap;html=1;fixedSize=1;strokeWidth=4;fontFamily=Garamond;" vertex="1" parent="KiBEYHHfIy09VV7ayXII-1">
          <mxGeometry x="362" y="-399" width="120" height="60" as="geometry" />
        </mxCell>
      </root>
    </mxGraphModel>
  </diagram>
</mxfile>
